<svg width="46" height="41" viewBox="0 0 46 41" fill="none" xmlns="http://www.w3.org/2000/svg">
<path d="M43.6667 29.2792C42.6604 28.6271 38.2917 27 36.6104 27M40.3062 34.4875C39.2979 33.8354 36.9458 32.2083 35.2646 32.2083M2 29.2792C3.00833 28.6271 7.375 27 9.05625 27M5.36042 34.4875C6.36875 33.8354 8.72083 32.2083 10.4021 32.2083" stroke="black" stroke-width="3.125" stroke-linecap="round"/>
<path d="M24.9458 28.6396C24.9458 29 24.1938 29.2917 23.2667 29.2917C22.3375 29.2917 21.5854 29 21.5854 28.6396C21.5854 28.2792 22.3375 27.9875 23.2667 27.9875C24.1938 27.9875 24.9458 28.2792 24.9458 28.6396ZM30.5167 23.6271C30.5167 24.525 30.0646 25.2542 29.5083 25.2542C28.9521 25.2542 28.5 24.525 28.5 23.6271C28.5 22.7271 28.9521 22 29.5083 22C30.0646 22 30.5167 22.7313 30.5167 23.6271ZM18.0167 23.6271C18.0167 24.525 17.5646 25.2542 17.0083 25.2542C16.4521 25.2542 16 24.525 16 23.6271C16 22.7271 16.4521 22 17.0083 22C17.5646 22 18.0167 22.7313 18.0167 23.6271Z" stroke="black" stroke-width="3.125"/>
<mask id="path-3-inside-1_57_48" fill="white">
<path fill-rule="evenodd" clip-rule="evenodd" d="M13.859 6.56587L3 0V22.7778V24.6H3.09875C4.1022 33.8083 12.6293 41 23 41C33.3707 41 41.8978 33.8083 42.9012 24.6H43V22.7778V0L32.141 6.56587C29.4012 5.28092 26.2936 4.55556 23 4.55556C19.7064 4.55556 16.5988 5.28092 13.859 6.56587Z"/>
</mask>
<path d="M3 0L4.55225 -2.5672L0 -5.3197L0 0H3ZM13.859 6.56587L12.3068 9.13307L13.68 9.96339L15.1329 9.28198L13.859 6.56587ZM3 24.6H0V27.6H3V24.6ZM3.09875 24.6L6.0811 24.275L5.78959 21.6H3.09875V24.6ZM42.9012 24.6V21.6H40.2104L39.9189 24.275L42.9012 24.6ZM43 24.6V27.6H46V24.6H43ZM43 0H46V-5.3197L41.4478 -2.5672L43 0ZM32.141 6.56587L30.8671 9.28198L32.32 9.96339L33.6932 9.13307L32.141 6.56587ZM1.44775 2.5672L12.3068 9.13307L15.4113 3.99867L4.55225 -2.5672L1.44775 2.5672ZM6 22.7778V0H0V22.7778H6ZM6 24.6V22.7778H0V24.6H6ZM3.09875 21.6H3V27.6H3.09875V21.6ZM23 38C13.9495 38 6.89679 31.7604 6.0811 24.275L0.116406 24.925C1.30761 35.8562 11.3091 44 23 44V38ZM39.9189 24.275C39.1032 31.7604 32.0505 38 23 38V44C34.6909 44 44.6924 35.8562 45.8836 24.925L39.9189 24.275ZM43 21.6H42.9012V27.6H43V21.6ZM40 22.7778V24.6H46V22.7778H40ZM40 0V22.7778H46V0H40ZM33.6932 9.13307L44.5522 2.5672L41.4478 -2.5672L30.5887 3.99867L33.6932 9.13307ZM23 7.55556C25.8514 7.55556 28.5243 8.18318 30.8671 9.28198L33.4148 3.84976C30.2782 2.37865 26.7358 1.55556 23 1.55556V7.55556ZM15.1329 9.28198C17.4757 8.18318 20.1486 7.55556 23 7.55556V1.55556C19.2642 1.55556 15.7218 2.37865 12.5852 3.84976L15.1329 9.28198Z" fill="black" mask="url(#path-3-inside-1_57_48)"/>
</svg>
