<svg width="106" height="48" viewBox="0 0 106 48" fill="none" xmlns="http://www.w3.org/2000/svg">
<path d="M73.6667 31.2792C72.6604 30.6271 68.2917 29 66.6104 29M70.3062 36.4875C69.2979 35.8354 66.9458 34.2083 65.2646 34.2083M32 31.2792C33.0083 30.6271 37.375 29 39.0562 29M35.3604 36.4875C36.3687 35.8354 38.7208 34.2083 40.4021 34.2083" stroke="black" stroke-width="3.125" stroke-linecap="round"/>
<path d="M54.9458 30.6396C54.9458 31 54.1938 31.2917 53.2667 31.2917C52.3375 31.2917 51.5854 31 51.5854 30.6396C51.5854 30.2792 52.3375 29.9875 53.2667 29.9875C54.1938 29.9875 54.9458 30.2792 54.9458 30.6396ZM60.5167 25.6271C60.5167 26.525 60.0646 27.2542 59.5083 27.2542C58.9521 27.2542 58.5 26.525 58.5 25.6271C58.5 24.7271 58.9521 24 59.5083 24C60.0646 24 60.5167 24.7313 60.5167 25.6271ZM48.0167 25.6271C48.0167 26.525 47.5646 27.2542 47.0083 27.2542C46.4521 27.2542 46 26.525 46 25.6271C46 24.7271 46.4521 24 47.0083 24C47.5646 24 48.0167 24.7313 48.0167 25.6271Z" stroke="black" stroke-width="3.125"/>
<mask id="path-3-inside-1_1_29" fill="white">
<path fill-rule="evenodd" clip-rule="evenodd" d="M43.859 8.56587L33 2V24.7778V26.6H33.0988C34.1022 35.8083 42.6293 43 53 43C63.3707 43 71.8978 35.8083 72.9012 26.6H73V24.7778V2L62.141 8.56587C59.4012 7.28092 56.2936 6.55556 53 6.55556C49.7064 6.55556 46.5988 7.28092 43.859 8.56587Z"/>
</mask>
<path d="M33 2L34.5522 -0.567201L30 -3.3197V2H33ZM43.859 8.56587L42.3068 11.1331L43.68 11.9634L45.1329 11.282L43.859 8.56587ZM33 26.6H30V29.6H33V26.6ZM33.0988 26.6L36.0811 26.275L35.7896 23.6H33.0988V26.6ZM72.9012 26.6V23.6H70.2104L69.9189 26.275L72.9012 26.6ZM73 26.6V29.6H76V26.6H73ZM73 2H76V-3.3197L71.4478 -0.567201L73 2ZM62.141 8.56587L60.8671 11.282L62.32 11.9634L63.6932 11.1331L62.141 8.56587ZM31.4478 4.5672L42.3068 11.1331L45.4113 5.99867L34.5522 -0.567201L31.4478 4.5672ZM36 24.7778V2H30V24.7778H36ZM36 26.6V24.7778H30V26.6H36ZM33.0988 23.6H33V29.6H33.0988V23.6ZM53 40C43.9495 40 36.8968 33.7604 36.0811 26.275L30.1164 26.925C31.3076 37.8562 41.3091 46 53 46V40ZM69.9189 26.275C69.1032 33.7604 62.0505 40 53 40V46C64.6909 46 74.6924 37.8562 75.8836 26.925L69.9189 26.275ZM73 23.6H72.9012V29.6H73V23.6ZM70 24.7778V26.6H76V24.7778H70ZM70 2V24.7778H76V2H70ZM63.6932 11.1331L74.5522 4.5672L71.4478 -0.567201L60.5887 5.99867L63.6932 11.1331ZM53 9.55556C55.8514 9.55556 58.5243 10.1832 60.8671 11.282L63.4148 5.84976C60.2782 4.37865 56.7358 3.55556 53 3.55556V9.55556ZM45.1329 11.282C47.4757 10.1832 50.1486 9.55556 53 9.55556V3.55556C49.2642 3.55556 45.7218 4.37865 42.5852 5.84976L45.1329 11.282Z" fill="black" mask="url(#path-3-inside-1_1_29)"/>
<path d="M3.89205 29.142V25.9602L22.7557 16.8125V21.1449L8.83523 27.4943L8.96307 27.2386V27.8494L8.83523 27.608L22.7557 33.9432V38.2898L3.89205 29.142Z" fill="black"/>
<path d="M102.108 29.142V25.9602L83.2443 16.8125V21.1449L97.1648 27.4943L97.0369 27.2386V27.8494L97.1648 27.608L83.2443 33.9432V38.2898L102.108 29.142Z" fill="black"/>
</svg>
