<svg width="21" height="25" viewBox="0 0 21 25" fill="none" xmlns="http://www.w3.org/2000/svg">
<path d="M19.8345 5C20.1319 5.00035 20.4179 5.12235 20.6342 5.34106C20.8504 5.55977 20.9806 5.85869 20.998 6.17674C21.0154 6.4948 20.9188 6.80797 20.728 7.05229C20.5371 7.29661 20.2663 7.45362 19.971 7.49125L19.8345 7.5H19.74L18.6677 21.25C18.6677 22.2065 18.3266 23.1269 17.7141 23.8228C17.1015 24.5188 16.2639 24.9376 15.3726 24.9938L15.1672 25H5.83276C3.9682 25 2.44434 23.4387 2.34166 21.5625L2.33583 21.3538L1.25886 7.5H1.16552C0.868122 7.49965 0.582075 7.37765 0.365823 7.15894C0.149571 6.94023 0.0194357 6.64131 0.00200696 6.32326C-0.0154218 6.0052 0.0811712 5.69203 0.27205 5.44771C0.462929 5.20339 0.733686 5.04638 1.029 5.00875L1.16552 5H19.8345ZM12.8336 0C13.4525 0 14.0461 0.263392 14.4837 0.732233C14.9214 1.20107 15.1672 1.83696 15.1672 2.5C15.1669 2.8186 15.053 3.12504 14.8489 3.35671C14.6447 3.58838 14.3657 3.72779 14.0688 3.74646C13.7719 3.76514 13.4796 3.66166 13.2515 3.45717C13.0235 3.25268 12.8769 2.96262 12.8418 2.64625L12.8336 2.5H8.16638L8.15821 2.64625C8.12309 2.96262 7.97652 3.25268 7.74847 3.45717C7.52041 3.66166 7.22807 3.76514 6.93119 3.74646C6.6343 3.72779 6.35528 3.58838 6.15112 3.35671C5.94697 3.12504 5.83309 2.8186 5.83276 2.5C5.83257 1.86928 6.05493 1.26179 6.45525 0.799315C6.85557 0.336838 7.40427 0.0535541 7.99136 0.00625014L8.16638 0H12.8336Z" fill="black"/>
</svg>
